<?xml version="1.0" encoding="UTF-8"?>
<svg class="icon icon-tabler icon-tabler-slideshow" width="123" height="70" fill="none" stroke="currentColor" stroke-linecap="round" stroke-linejoin="round" version="1.1" viewBox="0 0 123 70" xmlns="http://www.w3.org/2000/svg">
 <g transform="matrix(2.7143 0 0 2.7143 23.5 -3)" stroke-width="1.1667">
  <path d="m0 0h28v28h-28z" fill="none" stroke="none"/>
  <path d="m17.5 7h0.01167"/>
  <path d="m3.5 3.5m0 3.5a3.5 3.5 0 0 1 3.5-3.5h14a3.5 3.5 0 0 1 3.5 3.5v9.3333a3.5 3.5 0 0 1-3.5 3.5h-14a3.5 3.5 0 0 1-3.5-3.5z"/>
  <path d="m3.5 15.167 4.6667-4.6667a3.5 5.8333 0 0 1 3.5 0l4.6667 4.6667"/>
  <path d="m15.167 14 2.3333-2.3333a3.5 5.8333 0 0 1 3.5 0l3.5 3.5"/>
  <path d="m9.3333 24.5h0.011667"/>
  <path d="m14 24.5h0.01167"/>
  <path d="m18.667 24.5h0.01167"/>
 </g>
</svg>
